Coordinates
version=1
nRows=27
nColumns=19
inDegrees=yes

Units are S.I. units (second, meters, Newtons, ...)
If the header above contains a line with 'inDegrees', this indicates whether rotational values are in degrees (yes) or radians (no).

endheader
time	pelvis_to_ground_rx	pelvis_to_ground_ry	pelvis_to_ground_rz	pelvis_to_ground_tx	pelvis_to_ground_ty	pelvis_to_ground_tz	left_hip_abduction	left_hip_rotation	left_hip_flexion	left_knee_flexion	left_ankle_flexion	left_subtalar_angle	right_hip_abduction	right_hip_rotation	right_hip_flexion	right_knee_flexion	right_ankle_flexion	right_subtalar_angle
      0.03000000	     85.32631986	     -4.07370862	     -3.99876017	     -1.78157996	     -0.76778413	      0.72135142	     -5.80004081	      5.40426508	     43.57140338	    -44.24990899	     -0.03985404	     -9.66006862	     11.73928962	     11.43847949	     -3.41073791	    -18.04689290	      2.87453750	     -2.63596535
      0.04000000	     85.62262954	     -4.24662315	     -3.65761195	     -1.76637445	     -0.76810870	      0.71910427	     -5.78420865	      4.60358836	     42.62610037	    -42.49964819	     -0.13007958	     -9.51522848	     11.56461671	     10.56186816	     -3.76355474	    -20.37029288	      2.76157880	     -2.72439006
      0.05000000	     85.99403829	     -4.39791312	     -3.23006143	     -1.75116962	     -0.76839287	      0.71669103	     -5.82542354	      3.73157102	     41.58247717	    -40.85411657	     -0.26739903	     -9.36291799	     11.27003078	      9.55086222	     -4.19755647	    -22.67448466	      2.60000103	     -2.74750336
      0.06000000	     86.43906434	     -4.52468074	     -2.76265879	     -1.73597095	     -0.76860893	      0.71417666	     -5.94648860	      2.80478188	     40.49560236	    -39.42739997	     -0.39488181	     -9.24341987	     10.83731535	      8.39721268	     -4.63132197	    -24.98643985	      2.37416749	     -2.71915407
      0.07000000	     86.97015499	     -4.60471852	     -2.21270691	     -1.72076131	     -0.76874850	      0.71163216	     -6.17209480	      1.81535856	     39.31479936	    -38.29590124	     -0.58533430	     -9.26095353	     10.25370787	      7.06413788	     -5.08923938	    -27.31588308	      1.85296628	     -2.43376126
      0.08000000	     87.62234086	     -4.64779554	     -1.82663452	     -1.70562187	     -0.76871570	      0.70908697	     -6.59623437	      0.80045238	     38.34267735	    -37.56466089	     -0.56261076	     -9.31716798	      9.37656017	      5.43511241	     -5.19645300	    -29.81105850	      1.49334806	     -2.37597045
      0.09000000	     88.40446231	     -4.64095280	     -1.43589588	     -1.69051325	     -0.76852300	      0.70667126	     -7.19826426	     -0.28035803	     37.33915642	    -37.17162895	     -0.43636128	     -9.49715667	      8.26448052	      3.62063403	     -5.18991078	    -32.37592663	      0.91041764	     -2.23598279
      0.10000000	     89.33075338	     -4.66232301	     -1.12109786	     -1.67546652	     -0.76808877	      0.70442713	     -8.08109095	     -1.16383465	     36.44040134	    -37.15315784	     -0.06533423	    -10.26226438	      6.87212258	      1.67691319	     -4.93963929	    -35.07449226	     -0.41460850	     -1.82126432
      0.11000000	     90.34662251	     -4.60898058	     -0.97524130	     -1.66056978	     -0.76747031	      0.70242119	     -9.11313324	     -2.12182341	     35.69231065	    -37.44492511	      0.23774842	    -11.07237618	      5.29573354	     -0.42183227	     -4.36063185	    -37.86387789	     -1.48771635	     -1.86215485
      0.12000000	     91.46491599	     -4.54332835	     -0.78890886	     -1.64578917	     -0.76665573	      0.70067655	    -10.38526742	     -2.83885881	     34.89266575	    -37.99267611	      0.70497202	    -11.65248694	      3.55278950	     -2.57769238	     -3.68990910	    -40.71901363	     -2.51298079	     -1.95662737
      0.13000000	     92.63062657	     -4.45962936	     -0.83267314	     -1.63124121	     -0.76565499	      0.69934447	    -11.75040997	     -3.52525292	     34.24717163	    -38.62939930	      1.28133335	    -12.33231276	      1.76516377	     -4.68558679	     -2.63505274	    -43.60724604	     -3.76070528	     -2.36129653
      0.14000000	     93.83513700	     -4.36913694	     -0.79243167	     -1.61688946	     -0.76451024	      0.69838145	    -13.25820477	     -3.91697345	     33.45030457	    -39.30278721	      1.90859819	    -12.79835019	     -0.04971330	     -6.72794704	     -1.54337272	    -46.48965189	     -4.75380756	     -2.64683026
      0.15000000	     95.01777431	     -4.27206250	     -0.93931530	     -1.60285223	     -0.76325426	      0.69794263	    -14.75029843	     -4.22812225	     32.71558463	    -39.84531501	      2.63259617	    -13.20820797	     -1.73827445	     -8.60438087	     -0.11442326	    -49.32154307	     -5.75764122	     -3.10429216
      0.16000000	     96.15361729	     -4.16971077	     -1.14528619	     -1.58913562	     -0.76194185	      0.69803158	    -16.20307234	     -4.37497642	     31.90969839	    -40.18528826	      3.32606095	    -13.44272080	     -3.25162013	    -10.28156650	      1.51063855	    -52.05337421	     -6.62277389	     -3.74730752
      0.17000000	     97.20382852	     -4.05844541	     -1.45476359	     -1.57577961	     -0.76061233	      0.69869905	    -17.53964683	     -4.42734475	     31.05929472	    -40.24386317	      3.92722066	    -13.47466816	     -4.50821303	    -11.72802864	      3.38237772	    -54.63934942	     -7.20595249	     -4.35532584
      0.18000000	     98.16728776	     -3.95709820	     -1.72842160	     -1.56275756	     -0.75927516	      0.69990950	    -18.75886954	     -4.32353895	     30.02547150	    -39.97412331	      4.06309226	    -13.45877885	     -5.53100954	    -12.90206200	      5.34864222	    -57.04574175	     -7.29997248	     -4.52932443
      0.19000000	     98.96081696	     -3.76044686	     -2.13228399	     -1.55010377	     -0.75806878	      0.70170306	    -19.71179635	     -4.36076850	     28.94623776	    -39.36704099	      4.39774790	    -13.37441444	     -6.18580637	    -13.91367685	      7.54044855	    -59.18178023	     -7.38131227	     -4.82331425
      0.20000000	     99.60770838	     -3.59480826	     -2.47834615	     -1.53778720	     -0.75690998	      0.70393847	    -20.48731620	     -4.22238983	     27.73531249	    -38.51839435	      5.17194594	    -12.60212307	     -6.54431248	    -14.52822325	      9.77206992	    -61.05514727	     -7.37705834	     -5.66236062
      0.21000000	    100.08862503	     -3.36101775	     -2.82750084	     -1.52577160	     -0.75587518	      0.70662858	    -20.99531790	     -4.27230854	     26.36643322	    -37.33758271	      5.19386196	    -12.40573719	     -6.61692947	    -14.92734434	     12.05566388	    -62.60958891	     -7.27568704	     -5.77045361
      0.22000000	    100.37446679	     -3.08847235	     -3.19482329	     -1.51404896	     -0.75500428	      0.70964866	    -21.25251273	     -4.32887870	     24.96851564	    -35.99148938	      5.13568090	    -11.92876021	     -6.38424592	    -15.02635851	     14.38269975	    -63.82937783	     -6.76596115	     -6.01685807
      0.23000000	    100.54230329	     -2.72031738	     -3.37059709	     -1.50252781	     -0.75424614	      0.71285742	    -21.32707582	     -4.60930050	     23.27374051	    -34.45740595	      5.10898391	    -11.64518222	     -6.05721812	    -14.94138927	     16.47798809	    -64.71181505	     -6.47221366	     -6.15718450
      0.24000000	    100.47505520	     -2.29867834	     -3.60189502	     -1.49126960	     -0.75372918	      0.71624150	    -21.11890016	     -4.97084756	     21.66198993	    -32.91953022	      4.81156302	    -10.92683869	     -5.42858036	    -14.53405520	     18.58093292	    -65.22171436	     -5.51606605	     -6.49093098
      0.25000000	    100.31858607	     -1.75172055	     -3.61618467	     -1.48016820	     -0.75335111	      0.71960389	    -20.78980860	     -5.61654187	     19.79165317	    -31.34326210	      4.72297720	    -10.57663475	     -4.81326090	    -14.02531034	     20.37280002	    -65.40773139	     -5.15596115	     -6.62325015
      0.26000000	     99.99879990	     -1.11459239	     -3.65122622	     -1.46927785	     -0.75323295	      0.72290858	    -20.29043432	     -6.30193539	     18.05890541	    -29.94458652	      4.28234765	     -9.88703901	     -4.05778880	    -13.32057216	     22.09883971	    -65.26527291	     -4.16519825	     -7.00233597
      0.27000000	     99.64512665	     -0.36346128	     -3.51370773	     -1.45852463	     -0.75326655	      0.72602539	    -19.76742924	     -7.21991206	     16.18625056	    -28.63933342	      4.15727745	     -9.54172202	     -3.40115793	    -12.56007255	     23.55290386	    -64.84866875	     -3.82792158	     -7.14803795
      0.28000000	     99.22220724	      0.47702045	     -3.38608095	     -1.44794694	     -0.75353444	      0.72891655	    -19.19542521	     -8.12458719	     14.48318273	    -27.59275068	      3.68551305	     -8.96299451	     -2.75541655	    -11.69143348	     24.92957344	    -64.16603575	     -3.01002315	     -7.59198494
      0.29000000	     98.78191428	      1.44889822	     -3.13350718	     -1.43749078	     -0.75400167	      0.73149680	    -18.64252145	     -9.13302200	     12.76183230	    -26.77024538	      3.56420162	     -8.65926903	     -2.22608865	    -10.85528533	     26.08281226	    -63.24727407	     -2.77220236	     -7.73648216
